<svg xmlns="http://www.w3.org/2000/svg" version="1.1" xmlns:xlink="http://www.w3.org/1999/xlink" xmlns:svgjs="http://svgjs.dev/svgjs" width="2000" height="1500" viewBox="0 0 2000 1500"><rect width="2000" height="1500" fill="#61777f"></rect><g transform="matrix(0.75,0,0,0.75,249.090909090909,282.7536437246963)"><svg viewBox="0 0 396 247" data-background-color="#61777f" preserveAspectRatio="xMidYMid meet" height="1247" width="2000" xmlns="http://www.w3.org/2000/svg" xmlns:xlink="http://www.w3.org/1999/xlink"><g id="tight-bounds" transform="matrix(1,0,0,1,0.2400000000000091,-0.09999999999999432)"><svg viewBox="0 0 395.52 247.2" height="247.2" width="395.52"><g><svg></svg></g><g><svg viewBox="0 0 395.52 247.2" height="247.2" width="395.52"><g transform="matrix(1,0,0,1,75.54432,103.75953784615383)"><svg viewBox="0 0 244.43135999999998 39.680924307692315" height="39.680924307692315" width="244.43135999999998"><g><svg viewBox="0 0 244.43135999999998 39.680924307692315" height="39.680924307692315" width="244.43135999999998"><g><svg viewBox="0 0 244.43135999999998 39.680924307692315" height="39.680924307692315" width="244.43135999999998"><g><svg viewBox="0 0 244.43135999999998 39.680924307692315" height="39.680924307692315" width="244.43135999999998"><g id="textblocktransform"><svg viewBox="0 0 244.43135999999998 39.680924307692315" height="39.680924307692315" width="244.43135999999998" id="textblock"><g><svg viewBox="0 0 244.43135999999998 39.680924307692315" height="39.680924307692315" width="244.43135999999998"><g transform="matrix(1,0,0,1,0,0)"><svg width="244.43135999999998" viewBox="1.9 -43.35 311.97 50.65" height="39.680924307692315" data-palette-color="#ffffff"><path d="M9.65 0L1.9 0 1.9-42.95 15-42.95 18.6-16.75 22.2-42.95 35.4-42.95 35.4 0 27.55 0 27.55-30.95 22.6 0 14.9 0 9.65-30.95 9.65 0ZM46 0.5Q42.15 0.5 40.15-2.25 38.15-5 38.15-9.4L38.15-9.4Q38.15-14.3 39.55-17.28 40.95-20.25 43.95-22.5L43.95-22.5Q41.5-27.3 41.5-30.8L41.5-30.8Q41.5-34.45 43.87-36.52 46.25-38.6 50-38.6L50-38.6Q53.7-38.6 56.07-36.63 58.45-34.65 58.45-31.1L58.45-31.1Q58.45-25.9 52.7-21.35L52.7-21.35 54.25-17.7Q55.65-21.4 58.45-23.45L58.45-23.45 61.85-18.15Q58.9-15.85 57.05-10.55L57.05-10.55 61.4 0 53.1 0 52.2-2.35Q51.15-1.1 49.52-0.3 47.9 0.5 46 0.5L46 0.5ZM50.5-27.1L50.9-27.55Q51.4-28.1 51.8-29.13 52.2-30.15 52.2-31.1L52.2-31.1Q52.2-32.6 50.75-32.6L50.75-32.6Q50.15-32.6 49.8-32.18 49.45-31.75 49.45-31.1L49.45-31.1Q49.45-29.8 50.5-27.1L50.5-27.1ZM47.35-5.75Q48.3-5.75 48.95-6.48 49.6-7.2 49.8-8.15L49.8-8.15 46.85-15.25 46.55-14.8Q46.15-14.2 45.9-12.9 45.65-11.6 45.65-10.35L45.65-10.35 45.65-10.1Q45.65-8.15 45.95-6.95 46.25-5.75 47.35-5.75L47.35-5.75ZM73 0L64.45 0 64.45-42.95 72.95-42.95 72.95-25.75 76.95-42.95 85.6-42.95 80.8-23.3 86.6 0 77.7 0 73-20.8 73 0ZM109.74 0.4Q105.04 0.4 102.22-2.55 99.39-5.5 99.39-10.65L99.39-10.65 99.39-30.45Q99.39-36.85 101.94-40.1 104.49-43.35 109.94-43.35L109.94-43.35Q114.69-43.35 117.59-40.75 120.49-38.15 120.49-33.25L120.49-33.25 120.49-25.85 111.94-25.85 111.94-32.2Q111.94-34.05 111.49-34.75 111.04-35.45 109.94-35.45L109.94-35.45Q108.79-35.45 108.37-34.65 107.94-33.85 107.94-32.3L107.94-32.3 107.94-10.75Q107.94-9.05 108.44-8.28 108.94-7.5 109.94-7.5L109.94-7.5Q111.94-7.5 111.94-10.75L111.94-10.75 111.94-18.5 120.59-18.5 120.59-10.4Q120.59 0.4 109.74 0.4L109.74 0.4ZM133.94 0.4Q122.99 0.4 122.99-10.95L122.99-10.95 122.99-25.65Q122.99-30.85 125.91-33.93 128.84-37 133.94-37L133.94-37Q139.04-37 141.96-33.93 144.89-30.85 144.89-25.65L144.89-25.65 144.89-10.95Q144.89 0.4 133.94 0.4L133.94 0.4ZM133.94-6.35Q134.99-6.35 135.49-7.1 135.99-7.85 135.99-9.15L135.99-9.15 135.99-27.05Q135.99-30.25 133.94-30.25L133.94-30.25Q131.89-30.25 131.89-27.05L131.89-27.05 131.89-9.15Q131.89-7.85 132.39-7.1 132.89-6.35 133.94-6.35L133.94-6.35ZM148.14 0L148.14-36.6 156.69-36.6 156.69-32.35Q157.29-34.7 158.74-35.85 160.19-37 162.84-37L162.84-37Q164.99-37 166.56-36.02 168.14-35.05 168.79-33.35L168.79-33.35Q169.89-35.25 171.24-36.13 172.59-37 174.99-37L174.99-37Q179.29-37 180.96-34.38 182.64-31.75 182.64-26.75L182.64-26.75 182.54 0 173.74 0 173.74-26.9Q173.74-30.45 171.94-30.45L171.94-30.45Q170.69-30.45 170.14-29.23 169.59-28 169.59-26.3L169.59-26.3 169.59 0 160.84 0 160.84-26.9Q160.84-28.45 160.51-29.4 160.19-30.35 159.14-30.35L159.14-30.35Q157.79-30.35 157.24-29.03 156.69-27.7 156.69-25.85L156.69-25.85 156.69 0 148.14 0ZM186.03 7.3L186.03-36.6 194.93-36.6 194.93-34.65Q196.83-37 200.18-37L200.18-37Q204.43-37 206.11-34.15 207.78-31.3 207.78-26.25L207.78-26.25 207.78-12.7Q207.78-8.4 207.28-5.68 206.78-2.95 205.08-1.28 203.38 0.4 199.93 0.4L199.93 0.4Q196.63 0.4 194.93-1.45L194.93-1.45 194.93 7.3 186.03 7.3ZM197.03-6.4Q198.23-6.4 198.58-7.5 198.93-8.6 198.93-10.7L198.93-10.7 198.93-26.25Q198.93-28.15 198.58-29.15 198.23-30.15 196.98-30.15L196.98-30.15Q194.93-30.15 194.93-26.35L194.93-26.35 194.93-10.3Q194.93-8.45 195.36-7.43 195.78-6.4 197.03-6.4L197.03-6.4ZM218.08 0.4Q213.98 0.4 212.46-2.05 210.93-4.5 210.93-9.35L210.93-9.35 210.93-36.6 219.73-36.6 219.73-11.1Q219.73-10.75 219.73-9.22 219.73-7.7 220.21-7.08 220.68-6.45 221.68-6.45L221.68-6.45Q223.03-6.45 223.38-7.58 223.73-8.7 223.73-10.8L223.73-10.8 223.73-11.1 223.78-36.6 232.48-36.6 232.48 0 223.73 0 223.73-3.9Q222.83-1.6 221.63-0.6 220.43 0.4 218.08 0.4L218.08 0.4ZM243.53 0.4Q240.08 0.4 238.78-1.05 237.48-2.5 237.48-5.7L237.48-5.7 237.48-28.55 235.03-28.55 235.03-35.2 237.48-35.2 237.48-42.95 245.98-42.95 245.98-35.2 248.48-35.2 248.48-28.55 245.98-28.55 245.98-8Q245.98-7.05 246.13-6.6 246.28-6.15 246.93-6.15L246.93-6.15Q247.43-6.15 247.88-6.2 248.33-6.25 248.48-6.25L248.48-6.25 248.48-0.25Q247.73-0.05 246.3 0.18 244.88 0.4 243.53 0.4L243.53 0.4ZM261.48 0.4Q255.83 0.4 253.38-2.7 250.93-5.8 250.93-11.95L250.93-11.95 250.93-26.65Q250.93-31.7 253.83-34.35 256.73-37 261.93-37L261.93-37Q272.48-37 272.48-26.65L272.48-26.65 272.48-24Q272.48-20 272.38-17.5L272.38-17.5 259.68-17.5 259.68-10.4Q259.68-8.5 260.08-7.43 260.48-6.35 261.78-6.35L261.78-6.35Q262.78-6.35 263.2-6.95 263.63-7.55 263.7-8.33 263.78-9.1 263.78-10.6L263.78-10.6 263.78-14.15 272.48-14.15 272.48-12.05Q272.48-5.65 270-2.63 267.53 0.4 261.48 0.4L261.48 0.4ZM259.63-21.85L263.78-21.85 263.78-26.55Q263.78-30.5 261.83-30.5L261.83-30.5Q259.63-30.5 259.63-26.55L259.63-26.55 259.63-21.85ZM275.62 0L275.62-36.6 284.37-36.6 284.37-32.55Q285.02-34.7 286.65-35.88 288.27-37.05 290.67-37.05L290.67-37.05 290.67-29.75Q288.82-29.75 286.6-29.23 284.37-28.7 284.37-28L284.37-28 284.37 0 275.62 0ZM302.87 0.4Q292.02 0.4 292.02-10.6L292.02-10.6 292.07-13.5 300.82-13.5 300.87-9.2Q300.87-7.9 301.37-7.23 301.87-6.55 303.02-6.55L303.02-6.55Q304.77-6.55 304.77-9.4L304.77-9.4Q304.77-11.5 303.94-12.7 303.12-13.9 301.32-15.25L301.32-15.25 296.67-18.85Q294.27-20.7 293.22-22.68 292.17-24.65 292.17-28.25L292.17-28.25Q292.17-31.05 293.64-33.02 295.12-35 297.57-36 300.02-37 303.02-37L303.02-37Q313.67-37 313.67-26.4L313.67-26.4 313.67-25.7 304.62-25.7 304.62-27.1Q304.62-28.4 304.19-29.33 303.77-30.25 302.77-30.25L302.77-30.25Q301.87-30.25 301.39-29.73 300.92-29.2 300.92-28.3L300.92-28.3Q300.92-26.3 302.47-25.2L302.47-25.2 307.87-21.25Q310.77-19.1 312.32-16.57 313.87-14.05 313.87-10.2L313.87-10.2Q313.87-5.1 310.97-2.35 308.07 0.4 302.87 0.4L302.87 0.4Z" opacity="1" transform="matrix(1,0,0,1,0,0)" fill="#ffffff" class="wordmark-text-0" data-fill-palette-color="primary" id="text-0"></path></svg></g></svg></g></svg></g></svg></g></svg></g></svg></g></svg></g><path d="M183.322 97.76L183.322 35.372 6.866 35.372 6.866 211.828 183.322 211.828 183.322 149.44 179.744 149.44 179.744 208.249 10.445 208.249 10.445 38.951 179.744 38.951 179.744 97.76Z" fill="#ffffff" stroke="transparent" data-fill-palette-color="primary"></path></svg></g><defs></defs></svg><rect width="395.52" height="247.2" fill="none" stroke="none" visibility="hidden"></rect></g></svg></g></svg>